<svg width="35" height="35" viewBox="0 0 35 35" fill="none" xmlns="http://www.w3.org/2000/svg">
<path d="M34.7374 17.031V3.59797C34.7374 3.39147 34.4749 3.29697 34.3454 3.46147L19.6734 21.8015C19.6474 21.8338 19.6311 21.8727 19.6264 21.9139C19.6216 21.955 19.6286 21.9967 19.6466 22.0341C19.6645 22.0714 19.6926 22.1029 19.7277 22.1249C19.7628 22.1469 19.8034 22.1586 19.8449 22.1585H30.4464C30.7334 22.1585 31.0029 22.029 31.1814 21.805L34.5309 17.619C34.6639 17.451 34.7374 17.2445 34.7374 17.031V17.031ZM0.409381 17.619L11.4309 31.395C11.6094 31.619 11.8789 31.7485 12.1659 31.7485H22.7674C22.9529 31.7485 23.0544 31.535 22.9389 31.3915L0.594881 3.46147C0.465381 3.30047 0.202881 3.39147 0.202881 3.59797V17.031C0.202881 17.2445 0.276381 17.451 0.409381 17.619Z" fill="white"/>
</svg>
